<svg width="60" height="65" viewBox="0 0 121 130" fill="none" xmlns="http://www.w3.org/2000/svg">
<path d="M0 32C0 26.4772 4.47715 22 10 22H97.1472C102.992 22 107.591 26.9912 107.114 32.8166L100.678 111.369C100.285 116.166 96.5295 120.003 91.7415 120.499L11.0301 128.858C5.13136 129.469 0 124.841 0 118.911V32Z" fill="#2C2C2C"/>
<path d="M33.7457 45.3636H42.9716V73.7017C42.9716 76.8835 42.2116 79.6676 40.6918 82.054C39.1861 84.4403 37.0767 86.3011 34.3636 87.6364C31.6506 88.9574 28.4901 89.6179 24.8821 89.6179C21.2599 89.6179 18.0923 88.9574 15.3793 87.6364C12.6662 86.3011 10.5568 84.4403 9.05114 82.054C7.54545 79.6676 6.79261 76.8835 6.79261 73.7017V45.3636H16.0185V72.9134C16.0185 74.5753 16.3807 76.0526 17.1051 77.3452C17.8438 78.6378 18.8807 79.6534 20.2159 80.392C21.5511 81.1307 23.1065 81.5 24.8821 81.5C26.6719 81.5 28.2273 81.1307 29.5483 80.392C30.8835 79.6534 31.9134 78.6378 32.6378 77.3452C33.3764 76.0526 33.7457 74.5753 33.7457 72.9134V45.3636ZM50.5621 89V45.3636H67.7781C71.0877 45.3636 73.9073 45.9957 76.2369 47.2599C78.5664 48.5099 80.342 50.25 81.5636 52.4801C82.7994 54.696 83.4173 57.2528 83.4173 60.1506C83.4173 63.0483 82.7923 65.6051 81.5423 67.821C80.2923 70.0369 78.4812 71.7628 76.109 72.9986C73.7511 74.2344 70.896 74.8523 67.5437 74.8523H56.5707V67.4588H66.0522C67.8278 67.4588 69.2908 67.1534 70.4414 66.5426C71.6062 65.9176 72.4727 65.0582 73.0408 63.9645C73.6232 62.8565 73.9144 61.5852 73.9144 60.1506C73.9144 58.7017 73.6232 57.4375 73.0408 56.358C72.4727 55.2642 71.6062 54.419 70.4414 53.8224C69.2766 53.2116 67.7994 52.9062 66.0096 52.9062H59.788V89H50.5621Z" fill="url(#paint0_linear_5_25)"/>
<path fill-rule="evenodd" clip-rule="evenodd" d="M121 33.5L97.5 0L73 33.5H86V108H66.3715C66.4891 108 66.6329 107.999 66.8002 107.997H85.9982V89.5919C86.0022 89.2136 85.9982 89 85.9982 89V89.5919C85.974 91.9118 85.6521 100.426 82.2949 103.867C78.6849 107.568 69.5565 107.964 66.8002 107.997H66C66 107.997 66.1279 108 66.362 108H0V120C0 125.523 4.47715 130 10 130H86C98.1503 130 108 120.15 108 108V33.5H121Z" fill="url(#paint1_linear_5_25)"/>
<defs>
<linearGradient id="paint0_linear_5_25" x1="92.1158" y1="14.7778" x2="-20.1753" y2="67.197" gradientUnits="userSpaceOnUse">
<stop stop-color="#66CBF6"/>
<stop offset="1" stop-color="#E447FD"/>
</linearGradient>
<linearGradient id="paint1_linear_5_25" x1="82" y1="3.5" x2="-35.5" y2="128" gradientUnits="userSpaceOnUse">
<stop stop-color="#3BD0F0"/>
<stop offset="1" stop-color="#3B83F0"/>
</linearGradient>
</defs>
</svg>